<?xml version="1.0" encoding="UTF-8" standalone="no"?>
<svg
   viewBox="0 0 340.67 357.46"
   version="1.1"
   id="svg30"
   sodipodi:docname="EZLogo.svg"
   inkscape:version="1.2.2 (732a01da63, 2022-12-09)"
   xmlns:inkscape="http://www.inkscape.org/namespaces/inkscape"
   xmlns:sodipodi="http://sodipodi.sourceforge.net/DTD/sodipodi-0.dtd"
   xmlns="http://www.w3.org/2000/svg"
   xmlns:svg="http://www.w3.org/2000/svg">
  <sodipodi:namedview
     id="namedview32"
     pagecolor="#ffffff"
     bordercolor="#000000"
     borderopacity="0.25"
     inkscape:showpageshadow="2"
     inkscape:pageopacity="0.0"
     inkscape:pagecheckerboard="0"
     inkscape:deskcolor="#d1d1d1"
     showgrid="false"
     inkscape:zoom="2.81"
     inkscape:cx="218.3274"
     inkscape:cy="185.58719"
     inkscape:window-width="1649"
     inkscape:window-height="1259"
     inkscape:window-x="76"
     inkscape:window-y="152"
     inkscape:window-maximized="0"
     inkscape:current-layer="Layer_1-2" />
  <defs
     id="defs20">
    <style
       id="style18">.cls-1{fill:#00aeef;}.cls-2{fill:none;stroke:#231f20;stroke-linecap:round;stroke-miterlimit:10;stroke-width:7px;}</style>
  </defs>
  <title
     id="title22">Asset 2</title>
  <g
     id="Layer_2"
     data-name="Layer 2">
    <g
       id="Layer_1-2"
       data-name="Layer 1">
      <!-- <ellipse
         class="cls-1"
         cx="168.4"
         cy="179.01"
         rx="150.61"
         ry="156.88"
         id="ellipse24" /> -->
      <path
         class="cls-2"
         d="m 96.72,89.28 c -23.17,19 -58.94,83.42 -32.46,112.3 3.6,3.93 9.5,4.72 14.82,4.36 12.74,-0.87 25.18,-8.41 33.61,-17.69 4.43,-4.88 8.11,-10.67 9.74,-17.11 0.87,-3.45 2.14,-9.91 -2.05,-11.83 -11.93,-5.47 -16.86,36.22 -17.69,42 -2.39509,16.4917 -2.13514,33.26046 0.77,49.67 0.72,4.07 1.66,8.23 4,11.65 2.34,3.42 6.32,6 10.42,5.51 4.68,-0.56 8,-4.7 10.57,-8.66 34,-53 16.84,-157 66.22,-201.5 5.34,-4.82 12,-9.08 19.16,-8.53 12.42,1 19,15.12 21.26,27.38 5.8607,33.23353 0.33529,66.50453 -18.36316,94.59693 -5.01587,6.67094 -12.29408,15.9966 -18.4269,15.57372 -7.1486,-0.42931 -6.88168,-5.39335 -5.79493,-7.77042 2.75098,-3.89623 3.59897,-5.53922 8.96038,-9.88618 C 208.80597,163.32448 217.82,161 227.75,160.72 c 5.48,-0.16 10.17668,0.52599 14.69668,3.61599 4.75,3.25 8.01332,8.43401 9.37332,14.02401 5.14535,21.52472 4.6043,44.01756 -1.57,65.27 -5.7,19.26 -11.15611,37.40939 -27.15611,49.53939 -1.16,0.88 -4.96389,2.69061 -9.72389,1.24061 -2,-0.6 -4.91,-6.27 -5.36,-8.3 -2.56,-11.37 1.06,-19.78 4.81,-30.82 11.49,-33.8 25.57348,-59.7013 44.44304,-81.97536 14.30565,-15.84681 17.11006,-18.09772 23.23223,-22.56179 10.06321,-7.93132 32.55122,-11.06622 46.21516,18.81028 C 343.72565,204.75864 316.34,273.6 277.29,307.82 223.95,354.55 143.19,370.89 80.52,332.82 -12,276.6 -17.36,143.13 44.21,62.48 75.46,21.54 124.78,0.05 176,4 c 47.7,3.63 93.46,27.78 123.19,65.29 14.6,18.43 23.29,33 28.75,55.85"
         id="path26"
         sodipodi:nodetypes="ccccccccscccccccccccccccccccccccccc" />
    </g>
  </g>
</svg>
