<?xml version="1.0" encoding="UTF-8" standalone="no"?>
<!-- Created with Inkscape (http://www.inkscape.org/) -->

<svg
   width="1226.296"
   height="1226.296"
   id="svg2"
   sodipodi:version="0.32"
   inkscape:version="1.3.2 (091e20e, 2023-11-25)"
   version="1.0"
   sodipodi:docname="Road_Closed_Ahead_sign.svg"
   xmlns:inkscape="http://www.inkscape.org/namespaces/inkscape"
   xmlns:sodipodi="http://sodipodi.sourceforge.net/DTD/sodipodi-0.dtd"
   xmlns="http://www.w3.org/2000/svg"
   xmlns:svg="http://www.w3.org/2000/svg"
   xmlns:rdf="http://www.w3.org/1999/02/22-rdf-syntax-ns#"
   xmlns:cc="http://creativecommons.org/ns#"
   xmlns:dc="http://purl.org/dc/elements/1.1/">
  <defs
     id="defs4" />
  <sodipodi:namedview
     id="base"
     pagecolor="#ffffff"
     bordercolor="#666666"
     borderopacity="1.0"
     gridtolerance="10000"
     guidetolerance="10"
     objecttolerance="10"
     inkscape:pageopacity="0.0"
     inkscape:pageshadow="2"
     inkscape:zoom="0.51316815"
     inkscape:cx="516.39994"
     inkscape:cy="596.29578"
     inkscape:document-units="px"
     inkscape:current-layer="layer1"
     width="1226.296px"
     height="1226.296px"
     inkscape:window-width="1920"
     inkscape:window-height="1003"
     inkscape:window-x="0"
     inkscape:window-y="0"
     showgrid="false"
     inkscape:window-maximized="1"
     inkscape:showpageshadow="2"
     inkscape:pagecheckerboard="0"
     inkscape:deskcolor="#d1d1d1" />
  <metadata
     id="metadata7">
    <rdf:RDF>
      <cc:Work
         rdf:about="">
        <dc:format>image/svg+xml</dc:format>
        <dc:type
           rdf:resource="http://purl.org/dc/dcmitype/StillImage" />
      </cc:Work>
    </rdf:RDF>
  </metadata>
  <g
     inkscape:label="Layer 1"
     inkscape:groupmode="layer"
     id="layer1">
    <path
       transform="matrix(0.707107,-0.707107,0.707107,0.707107,0,0)"
       style="color:black;fill:#f4911d;fill-opacity:1;fill-rule:nonzero;stroke:none;stroke-width:0.87354410000000005;stroke-linecap:butt;stroke-linejoin:miter;stroke-miterlimit:4;stroke-dashoffset:0;stroke-opacity:1;marker:none;marker-start:none;marker-mid:none;marker-end:none;visibility:visible;display:inline;overflow:visible"
       d="M -393.75019,417.12207 L 393.75007,417.12207 C 424.91258,417.12207 450.00009,442.20958 450.00009,473.37209 L 450.00009,1260.8724 C 450.00009,1292.0349 424.91258,1317.1224 393.75007,1317.1224 L -393.75019,1317.1224 C -424.91271,1317.1224 -450.00021,1292.0349 -450.00021,1260.8724 L -450.00021,473.37209 C -450.00021,442.20958 -424.91271,417.12207 -393.75019,417.12207 z "
       id="rect1872" />
    <path
       transform="matrix(0.707107,-0.707107,0.707107,0.707107,0,0)"
       style="color:black;fill:#000000;fill-opacity:1;fill-rule:nonzero;stroke:none;stroke-width:0.87354410000000005;stroke-linecap:butt;stroke-linejoin:miter;stroke-miterlimit:4;stroke-dashoffset:0;stroke-opacity:1;marker:none;marker-start:none;marker-mid:none;marker-end:none;visibility:visible;display:inline;overflow:visible"
       d="M -393.7502,432.74707 L 393.75002,432.74707 C 416.25628,432.74707 434.37503,450.86583 434.37503,473.37208 L 434.37503,1260.8723 C 434.37503,1283.3786 416.25628,1301.4973 393.75002,1301.4973 L -393.7502,1301.4973 C -416.25646,1301.4973 -434.37521,1283.3786 -434.37521,1260.8723 L -434.37521,473.37208 C -434.37521,450.86583 -416.25646,432.74707 -393.7502,432.74707 z "
       id="rect2760" />
    <path
       transform="matrix(0.707107,-0.707107,0.707107,0.707107,0,0)"
       style="color:black;fill:#f4911d;fill-opacity:1;fill-rule:nonzero;stroke:none;stroke-width:0.87354410000000005;stroke-linecap:butt;stroke-linejoin:miter;stroke-miterlimit:4;stroke-dashoffset:0;stroke-opacity:1;marker:none;marker-start:none;marker-mid:none;marker-end:none;visibility:visible;display:inline;overflow:visible"
       d="M -393.75018,454.62207 L 393.75006,454.62207 C 404.13756,454.62207 412.50006,462.98457 412.50006,473.37208 L 412.50006,1260.8723 C 412.50006,1271.2598 404.13756,1279.6223 393.75006,1279.6223 L -393.75018,1279.6223 C -404.13768,1279.6223 -412.50018,1271.2598 -412.50018,1260.8723 L -412.50018,473.37208 C -412.50018,462.98457 -404.13768,454.62207 -393.75018,454.62207 z "
       id="rect2762" />
    <path
       transform="scale(1.015136,0.98509)"
       style="font-size:189.38684082000000000px;font-style:normal;font-variant:normal;font-weight:normal;font-stretch:normal;text-align:center;line-height:125%;writing-mode:lr-tb;text-anchor:middle;font-family:Roadgeek 2005 Series D;stroke:none;fill:#000000"
       d="M 462.33423,451.12448 L 441.88013,395.825 L 417.8311,395.825 L 417.8311,451.12448 L 397.75267,451.12448 L 397.75267,324.23275 L 439.60873,324.23275 C 444.53292,324.23288 448.76264,324.51705 452.29791,325.08525 C 455.83304,325.65371 459.17848,326.69693 462.33423,328.21492 C 465.11222,329.60215 467.66971,331.40058 470.00669,333.6102 C 472.34349,335.82006 474.36347,338.34479 476.06663,341.1844 C 477.76959,344.02423 479.09505,347.05468 480.04301,350.27576 C 480.99077,353.49703 481.4647,356.68546 481.4648,359.84104 C 481.4647,363.25111 480.99077,366.56572 480.04301,369.78489 C 479.09505,373.00422 477.76959,376.03371 476.06663,378.87336 C 474.36347,381.71315 472.28088,384.26967 469.81885,386.54292 C 467.35664,388.8163 464.67297,390.58487 461.76783,391.84862 L 484.11765,451.12448 L 462.33423,451.12448 z M 461.38637,359.84104 C 461.38629,357.19021 460.69274,354.66548 459.30571,352.26684 C 457.91852,349.86839 455.96115,347.97364 453.4336,346.58258 C 451.79212,345.70032 450.2769,345.10117 448.88793,344.78511 C 447.49882,344.46926 445.16289,344.31129 441.88013,344.31118 L 417.8311,344.31118 L 417.8311,375.3709 L 441.88013,375.3709 C 445.0396,375.37098 447.3447,375.24479 448.79545,374.99234 C 450.24607,374.74003 451.79212,374.17074 453.4336,373.28446 C 455.96115,371.89742 457.91852,369.97281 459.30571,367.51061 C 460.69274,365.04857 461.38629,362.49205 461.38637,359.84104 L 461.38637,359.84104 z M 592.69951,387.86646 C 592.69941,397.9693 591.50014,407.62897 589.10169,416.84551 C 586.70305,426.06211 583.29404,433.51205 578.87464,439.19533 C 571.80415,448.66236 561.57807,453.39587 548.19638,453.39587 C 539.2302,453.39587 531.84384,451.56566 526.03729,447.90523 C 520.23066,444.2448 515.43357,438.49986 511.64601,430.67038 C 508.99507,425.24141 506.84891,418.64493 505.20751,410.88093 C 503.56608,403.11701 502.74537,395.44553 502.74539,387.86646 C 502.74537,377.38999 503.97643,367.66963 506.43857,358.70534 C 508.90067,349.74124 512.2779,342.2287 516.57026,336.16769 C 520.35781,331.37071 524.87169,327.80372 530.11192,325.46671 C 535.35207,323.12994 541.6326,321.96149 548.95351,321.96136 C 557.03336,321.96149 563.914,323.79267 569.59545,327.4549 C 575.27674,331.11737 580.13837,336.86136 584.18034,344.68686 C 586.83117,350.37026 588.91376,356.99948 590.42812,364.57456 C 591.94228,372.1498 592.69941,379.91376 592.69951,387.86646 L 592.69951,387.86646 z M 572.62687,387.86646 C 572.62678,380.67282 571.99584,374.01373 570.73404,367.88917 C 569.47207,361.76478 567.57732,356.55638 565.04977,352.26395 C 563.03068,348.98122 560.7275,346.58268 558.14023,345.06831 C 555.55282,343.55416 552.36536,342.66988 548.57783,342.41546 C 543.65354,342.16512 539.55001,343.30178 536.26723,345.82544 C 532.98436,348.34932 530.26986,352.45285 528.12373,358.13605 C 526.48228,361.92372 525.25122,366.50022 524.43055,371.86556 C 523.60981,377.23105 523.19946,382.56468 523.19949,387.86646 C 523.19946,394.68647 523.8304,401.25309 525.09232,407.56632 C 526.35417,413.87963 528.24699,419.05529 530.7708,423.09329 C 532.79363,426.37614 535.19314,428.83826 537.96933,430.47965 C 540.74543,432.12108 544.15444,432.94179 548.19638,432.94177 C 552.86626,432.94179 556.74824,431.67991 559.84233,429.15612 C 562.93628,426.63237 565.55638,422.52884 567.70262,416.84551 C 568.33445,415.20413 568.96636,413.21594 569.59834,410.88093 C 570.23017,408.54601 570.76671,406.08389 571.20797,403.49457 C 571.64906,400.90535 571.99584,398.28525 572.2483,395.63428 C 572.50059,392.98341 572.62678,390.39414 572.62687,387.86646 L 572.62687,387.86646 z M 695.61157,451.12448 L 683.11023,415.52197 L 643.53134,415.52197 L 631.03001,451.12448 L 609.62804,451.12448 L 653.37983,324.23275 L 673.26175,324.23275 L 717.01353,451.12448 L 695.61157,451.12448 z M 663.60399,359.45959 L 650.53625,395.06787 L 675.91459,395.06787 L 663.60399,359.45959 z M 822.57266,387.49078 C 822.57256,400.24454 820.64699,411.45027 816.79593,421.10798 C 812.94468,430.76576 807.42032,438.37271 800.22284,443.92884 C 797.8223,446.20217 795.01244,447.9062 791.79326,449.04093 C 788.57394,450.17566 785.3229,450.87018 782.04014,451.12448 L 774.8445,451.12448 L 736.20769,451.12448 L 736.20769,324.23275 L 777.11589,324.23275 C 780.27536,324.23288 783.02261,324.32825 785.35764,324.51885 C 787.69254,324.7097 789.80692,325.05744 791.70078,325.56207 C 793.5945,326.06695 795.29853,326.76147 796.81286,327.64562 C 798.32705,328.53003 799.96846,329.60215 801.73711,330.86199 C 808.42983,336.67255 813.57562,344.40665 817.17449,354.0643 C 820.77317,363.72215 822.57256,374.8643 822.57266,387.49078 L 822.57266,387.49078 z M 802.11856,387.49078 C 802.11848,378.90618 801.20241,371.26744 799.37035,364.57456 C 797.53813,357.88184 795.04422,352.89403 791.88862,349.6111 C 790.24714,348.09694 788.35335,346.83506 786.20725,345.82544 C 784.06102,344.81604 781.66247,344.31129 779.01161,344.31118 L 756.28611,344.31118 L 756.28611,430.67038 L 776.35876,430.67038 C 779.64153,430.6704 782.38781,430.29183 784.59762,429.53468 C 786.8073,428.77757 788.79645,427.51473 790.56509,425.74614 C 794.3526,421.95858 797.22507,416.75018 799.18251,410.12091 C 801.1398,403.49173 802.11848,395.94836 802.11856,387.49078 L 802.11856,387.49078 z "
       id="text1889" />
    <path
       style="font-size:186.56300353999998000px;font-style:normal;font-variant:normal;font-weight:normal;font-stretch:normal;text-align:center;line-height:125%;writing-mode:lr-tb;text-anchor:middle;font-family:Roadgeek 2005 Series D;stroke:none;fill:#000000"
       d="M 429.35744,875.64801 L 417.04251,840.57635 L 378.05376,840.57635 L 365.73882,875.64801 L 344.65597,875.64801 L 387.7554,750.64829 L 407.34087,750.64829 L 450.44029,875.64801 L 429.35744,875.64801 z M 397.82711,785.34988 L 384.95422,820.42723 L 409.95416,820.42723 L 397.82711,785.34988 z M 534.64643,875.64801 L 534.64643,821.17307 L 489.12729,821.17307 L 489.12729,875.64801 L 469.34824,875.64801 L 469.34824,750.64829 L 489.12729,750.64829 L 489.12729,801.02395 L 534.64643,801.02395 L 534.64643,750.64829 L 554.42548,750.64829 L 554.42548,875.64801 L 534.64643,875.64801 z M 584.12821,875.64801 L 584.12821,750.64829 L 657.82424,750.64829 L 657.82424,770.42734 L 603.90726,770.42734 L 603.90726,801.02395 L 640.28841,801.02395 L 640.28841,821.17307 L 603.90726,821.17307 L 603.90726,855.49889 L 661.74133,855.49889 L 661.74133,875.64801 L 584.12821,875.64801 z M 756.57146,875.64801 L 744.25653,840.57635 L 705.26778,840.57635 L 692.95284,875.64801 L 671.86999,875.64801 L 714.96942,750.64829 L 734.55489,750.64829 L 777.65431,875.64801 L 756.57146,875.64801 z M 725.04113,785.34988 L 712.16824,820.42723 L 737.16818,820.42723 L 725.04113,785.34988 z M 881.6395,812.96311 C 881.6394,825.52671 879.74253,836.56535 875.9489,846.07907 C 872.15507,855.59285 866.71308,863.08637 859.62292,868.55966 C 857.25817,870.79909 854.49021,872.47771 851.31903,873.59552 C 848.14771,874.71334 844.94514,875.3975 841.71133,875.64801 L 834.62298,875.64801 L 796.56226,875.64801 L 796.56226,750.64829 L 836.86051,750.64829 C 839.97287,750.64842 842.67915,750.74236 844.97937,750.93012 C 847.27946,751.11813 849.36231,751.46068 851.22793,751.95779 C 853.09341,752.45514 854.77203,753.1393 856.26379,754.01028 C 857.7554,754.88149 859.37234,755.93763 861.11461,757.17868 C 867.70754,762.90261 872.7766,770.52139 876.32182,780.03504 C 879.86684,789.54888 881.6394,800.5249 881.6395,812.96311 L 881.6395,812.96311 z M 861.49038,812.96311 C 861.4903,804.50651 860.58789,796.98168 858.78314,790.38858 C 856.97824,783.79566 854.52152,778.88221 851.41297,775.64824 C 849.79596,774.15665 847.93041,772.91358 845.81631,771.91903 C 843.70208,770.92467 841.3393,770.42745 838.72796,770.42734 L 816.34131,770.42734 L 816.34131,855.49889 L 836.11467,855.49889 C 839.34849,855.49891 842.05382,855.12599 844.23068,854.38012 C 846.40741,853.6343 848.36691,852.39029 850.10917,850.64807 C 853.8402,846.91699 856.66985,841.78624 858.5981,835.25582 C 860.52621,828.72548 861.4903,821.29459 861.49038,812.96311 L 861.49038,812.96311 z "
       id="text1901" />
    <path
       style="font-size:40px;line-height:1.25;font-family:ClearviewHwy;-inkscape-font-specification:'ClearviewHwy, Normal';white-space:pre;inline-size:161.543"
       d="m -158.18754,732.41949 h -5.82873 l -4.64089,-18.59116 h -0.19337 l -4.58563,18.59116 h -5.9116 l -5.85636,-27.6243 h 5.44199 l 3.53591,21.04972 h 0.1105 l 5.13812,-21.04972 h 4.66851 l 5.05525,21.07734 h 0.16574 l 3.56354,-21.07734 h 5.33149 z m 29.33688,-13.83977 q 0,-2.18232 -0.30387,-4.00553 -0.27624,-1.85083 -1.02209,-3.17679 -0.71824,-1.32597 -1.98896,-2.07183 -1.24309,-0.74585 -3.14917,-0.74585 -1.90607,0 -3.14917,0.74585 -1.21547,0.74586 -1.9337,2.09945 -0.71823,1.32597 -1.0221,3.1768 -0.27624,1.8232 -0.27624,3.9779 0,2.20994 0.27624,4.06077 0.30387,1.8232 1.0221,3.17679 0.74586,1.32597 1.98895,2.07183 1.27072,0.74585 3.20442,0.74585 1.87845,0 3.09392,-0.74585 1.2431,-0.77348 1.96133,-2.09945 0.71823,-1.35359 0.99447,-3.20442 0.30387,-1.85083 0.30387,-4.00552 z m 5.35912,0 q 0,3.25966 -0.74586,5.9116 -0.74585,2.62431 -2.23757,4.50276 -1.46409,1.85083 -3.67403,2.87293 -2.18232,1.0221 -5.08287,1.0221 -2.92818,0 -5.13813,-1.0221 -2.20994,-1.0221 -3.70165,-2.87293 -1.49172,-1.87845 -2.23757,-4.50276 -0.74586,-2.65194 -0.74586,-5.9116 0,-3.1768 0.71823,-5.80111 0.74586,-2.62431 2.20995,-4.50276 1.49171,-1.87845 3.70166,-2.90055 2.23757,-1.0221 5.19337,-1.0221 2.92817,0 5.11049,1.0221 2.20995,1.0221 3.67404,2.90055 1.46409,1.87845 2.20994,4.50276 0.74586,2.62431 0.74586,5.80111 z m 20.71819,-5.49724 q 0,-2.29282 -1.16022,-3.37017 -1.1326,-1.10497 -3.59116,-1.10497 -0.88398,0 -1.71271,0.0553 -0.8011,0.0276 -1.65746,0.1105 v 8.67403 h 3.86741 q 1.04972,0 1.8232,-0.221 0.8011,-0.22099 1.32597,-0.71823 0.55248,-0.52486 0.82873,-1.35359 0.27624,-0.85635 0.27624,-2.07182 z m 0.27624,19.33701 -3.14917,-9.64088 q -0.22099,-0.69061 -0.49724,-0.96685 -0.27624,-0.27624 -0.9116,-0.27624 h -3.8674 v 10.88397 h -5.1105 v -27.45856 q 2.1547,-0.24862 4.1989,-0.33149 2.07182,-0.1105 4.22651,-0.1105 2.09945,0 3.92266,0.44199 1.85083,0.41437 3.20442,1.38122 1.381212,0.96685 2.154692,2.56906 0.801105,1.57458 0.801105,3.89502 0,2.79006 -1.104972,4.58564 -1.077348,1.79558 -3.232045,2.67956 v 0.0553 q 0.35912,0.0829 0.58011,0.58011 0.221,0.49724 0.38674,0.9116 l 3.812156,10.8011 z m 25.966822,0 -6.546961,-11.7127 -2.044199,2.65193 0.05525,9.06077 h -5.110498 v -27.6243 h 5.110498 l -0.05525,12.07182 h 0.248619 l 7.596685,-12.07182 h 6.104972 l -8.314917,12.20994 9.116022,15.41436 z"
       id="text4"
       transform="matrix(3.886555,0,0,4.4271552,1116.64,-2586.0082)"
       aria-label="WORK" />
  </g>
</svg>
